<?xml version="1.0" standalone="no"?>
<!DOCTYPE svg PUBLIC "-//W3C//DTD SVG 20010904//EN"
 "http://www.w3.org/TR/2001/REC-SVG-20010904/DTD/svg10.dtd">
<svg version="1.0" xmlns="http://www.w3.org/2000/svg"
 width="500.000000pt" height="500.000000pt" viewBox="0 0 500.000000 500.000000"
 preserveAspectRatio="xMidYMid meet">

<g transform="translate(0.000000,500.000000) scale(0.100000,-0.100000)"
fill="#000000" stroke="none">
<path d="M520 3075 c0 -3 39 -57 86 -120 99 -132 90 -128 281 -123 l112 3 -92
123 -91 122 -148 0 c-82 0 -148 -2 -148 -5z"/>
<path d="M593 2891 l72 -100 129 0 c113 -1 127 1 116 14 -10 12 -37 15 -119
15 l-107 0 -63 85 c-40 55 -70 85 -82 85 -15 0 -4 -20 54 -99z"/>
<path d="M362 2940 c-39 -100 -40 -342 -2 -465 73 -230 235 -423 478 -568 116
-68 121 -67 55 11 -108 129 -153 241 -153 382 0 85 19 168 54 242 19 40 21 48
7 43 -9 -4 -46 -10 -84 -12 -166 -13 -283 103 -332 332 -12 55 -13 58 -23 35z"/>
<path d="M530 2878 c-24 -40 -26 -116 -5 -157 60 -117 229 -127 295 -18 37 60
31 66 -67 69 l-87 3 -51 67 c-27 37 -53 67 -58 67 -4 1 -16 -14 -27 -31z"/>
<path d="M1792 2571 c-83 -5 -96 -9 -113 -30 -36 -45 -27 -51 74 -51 111 0
160 19 165 63 3 21 -1 27 -15 25 -10 -1 -60 -4 -111 -7z"/>
<path d="M2013 2430 c-42 -17 -47 -29 -127 -320 -14 -53 -26 -99 -26 -103 0
-4 31 -7 69 -7 l69 0 29 121 c22 88 32 117 40 107 5 -7 32 -53 59 -103 60
-111 82 -135 127 -135 49 0 68 20 136 144 56 102 60 107 67 80 3 -16 16 -69
28 -119 l22 -90 72 -3 c45 -2 72 1 72 7 0 15 -89 340 -102 374 -13 34 -61 61
-91 51 -37 -11 -57 -35 -129 -157 -62 -104 -72 -116 -82 -100 -6 10 -41 67
-76 127 -41 68 -75 113 -92 122 -31 16 -35 16 -65 4z"/>
<path d="M3000 2422 c-26 -12 -72 -68 -177 -212 -78 -107 -142 -198 -142 -202
-1 -5 37 -8 82 -8 l84 0 93 130 c51 72 96 130 101 128 4 -2 28 -32 53 -68 l46
-65 -78 -3 -77 -3 -42 -57 -41 -57 124 -3 c68 -1 180 -1 248 0 l125 3 -144
206 c-116 167 -150 209 -176 218 -40 14 -38 14 -79 -7z"/>
<path d="M4341 2422 c-25 -12 -72 -69 -168 -202 -74 -102 -138 -193 -144 -202
-9 -17 -3 -18 75 -18 l85 0 93 130 c51 71 96 130 100 130 6 0 98 -126 98 -135
0 -3 -34 -5 -75 -5 l-74 0 -42 -55 c-23 -31 -40 -58 -37 -60 3 -3 114 -4 248
-3 l242 3 -143 204 c-111 160 -149 206 -175 217 -42 18 -42 18 -83 -4z"/>
<path d="M1109 2421 c-88 -27 -124 -104 -84 -181 29 -55 62 -64 245 -68 91 -2
169 -8 174 -12 5 -6 4 -15 -4 -25 -10 -12 -41 -15 -181 -15 l-169 0 -45 -57
-45 -58 226 -3 c235 -2 284 3 322 38 33 31 48 92 34 139 -21 68 -42 75 -244
81 -97 3 -180 8 -183 12 -4 4 -5 14 -2 23 5 13 32 15 169 15 l163 1 19 27 c11
15 31 42 44 60 l24 32 -218 -1 c-121 0 -231 -4 -245 -8z"/>
<path d="M1650 2215 l0 -215 75 0 75 0 0 215 0 215 -75 0 -75 0 0 -215z"/>
<path d="M3506 2370 l-47 -60 203 -2 c184 -3 203 -5 206 -20 3 -17 -12 -18
-202 -18 l-206 0 0 -136 0 -135 233 3 c201 3 236 5 265 21 64 35 79 129 27
177 l-24 23 25 30 c21 25 25 38 21 69 -6 48 -21 66 -72 89 -34 16 -67 19 -211
19 l-171 0 -47 -60z m353 -209 c8 -5 11 -16 8 -25 -5 -14 -26 -16 -137 -16
-119 0 -130 1 -130 18 0 10 3 22 7 25 10 10 236 8 252 -2z"/>
</g>
</svg>
